<?xml version="1.0" encoding="UTF-8"?><svg xmlns="http://www.w3.org/2000/svg" xmlns:xlink="http://www.w3.org/1999/xlink" fill-opacity="1" color-rendering="auto" color-interpolation="auto" text-rendering="auto" stroke="black" stroke-linecap="square" width="247" stroke-miterlimit="10" shape-rendering="auto" stroke-opacity="1" fill="black" stroke-dasharray="none" font-weight="normal" stroke-width="1" height="197" font-family="'Dialog'" font-style="normal" stroke-linejoin="miter" font-size="12px" stroke-dashoffset="0" image-rendering="auto">
  <!--Generated by ySVG 2.5-->
  <defs id="genericDefs"/>
  <g>
    <defs id="defs1">
      <clipPath clipPathUnits="userSpaceOnUse" id="clipPath1">
        <path d="M0 0 L247 0 L247 197 L0 197 L0 0 Z"/>
      </clipPath>
      <clipPath clipPathUnits="userSpaceOnUse" id="clipPath2">
        <path d="M323 182 L570 182 L570 379 L323 379 L323 182 Z"/>
      </clipPath>
    </defs>
    <g fill="white" text-rendering="geometricPrecision" shape-rendering="geometricPrecision" transform="translate(-323,-182)" stroke="white">
      <rect x="323" width="247" height="197" y="182" clip-path="url(#clipPath2)" stroke="none"/>
    </g>
    <g stroke-linecap="butt" transform="matrix(1,0,0,1,-323,-182)" fill="rgb(255,204,0)" text-rendering="geometricPrecision" shape-rendering="geometricPrecision" stroke="rgb(255,204,0)" stroke-width="5" stroke-miterlimit="1.45">
      <rect fill="none" x="388" width="118" height="47" y="197" clip-path="url(#clipPath2)"/>
    </g>
    <g stroke-linecap="butt" transform="matrix(1,0,0,1,-323,-182)" text-rendering="geometricPrecision" font-family="sans-serif" shape-rendering="geometricPrecision" font-weight="bold" stroke-miterlimit="1.45">
      <text x="392.3027" xml:space="preserve" y="225.2139" clip-path="url(#clipPath2)" stroke="none">statistical analysis </text>
    </g>
    <g stroke-linecap="butt" transform="matrix(1,0,0,1,-323,-182)" fill="blue" text-rendering="geometricPrecision" shape-rendering="geometricPrecision" stroke="blue" stroke-width="4" stroke-miterlimit="1.45">
      <rect fill="none" x="345" width="79" height="34" y="274" clip-path="url(#clipPath2)"/>
    </g>
    <g text-rendering="geometricPrecision" stroke-miterlimit="1.45" shape-rendering="geometricPrecision" font-family="sans-serif" transform="matrix(1,0,0,1,-323,-182)" stroke-linecap="butt">
      <text x="357.8223" xml:space="preserve" y="295.7139" clip-path="url(#clipPath2)" stroke="none">CAM data</text>
    </g>
    <g stroke-linecap="butt" transform="matrix(1,0,0,1,-323,-182)" fill="blue" text-rendering="geometricPrecision" shape-rendering="geometricPrecision" stroke="blue" stroke-width="4" stroke-miterlimit="1.45">
      <rect fill="none" x="469" width="79" height="34" y="274" clip-path="url(#clipPath2)"/>
    </g>
    <g text-rendering="geometricPrecision" stroke-miterlimit="1.45" shape-rendering="geometricPrecision" font-family="sans-serif" transform="matrix(1,0,0,1,-323,-182)" stroke-linecap="butt">
      <text x="477.4834" xml:space="preserve" y="295.7139" clip-path="url(#clipPath2)" stroke="none">survey data</text>
      <rect x="338.92" y="329.68" clip-path="url(#clipPath2)" fill="none" width="91.16" stroke-dasharray="12,4" height="34" stroke-width="2"/>
      <text x="347.4834" xml:space="preserve" y="351.3939" clip-path="url(#clipPath2)" stroke="none">Graph Theory</text>
      <rect x="462.92" y="329.68" clip-path="url(#clipPath2)" fill="none" width="91.16" stroke-dasharray="12,4" height="34" stroke-width="2"/>
      <text x="466.4707" xml:space="preserve" y="344.0433" clip-path="url(#clipPath2)" stroke="none">Latent Variable </text>
      <text x="489.1582" xml:space="preserve" y="358.7444" clip-path="url(#clipPath2)" stroke="none">Models</text>
      <path fill="none" d="M426.1667 244 L404.8779 268.0137" clip-path="url(#clipPath2)"/>
      <path d="M399.5709 274 L411.2729 268.3374 L405.5413 267.2654 L403.79 261.7037 Z" clip-path="url(#clipPath2)" stroke="none"/>
      <path fill="none" d="M467.5 244 L488.4113 267.9714" clip-path="url(#clipPath2)"/>
      <path d="M493.6702 274 L489.5496 261.6703 L487.7539 267.2179 L482.0139 268.244 Z" clip-path="url(#clipPath2)" stroke="none"/>
      <path fill="none" d="M424 291 L461 291" clip-path="url(#clipPath2)"/>
      <path d="M469 291 L457 286 L460 291 L457 296 Z" clip-path="url(#clipPath2)" stroke="none"/>
      <path fill="none" d="M469 291 L431.999 291" clip-path="url(#clipPath2)"/>
      <path d="M423.999 291 L435.999 296 L432.999 291 L435.999 286 Z" clip-path="url(#clipPath2)" stroke="none"/>
      <path fill="none" d="M384.5 329.68 L384.5 316" clip-path="url(#clipPath2)"/>
      <path d="M384.5 308 L379.5 320 L384.5 317 L389.5 320 Z" clip-path="url(#clipPath2)" stroke="none"/>
      <path fill="none" d="M508.5 329.68 L508.5 316" clip-path="url(#clipPath2)"/>
      <path d="M508.5 308 L503.5 320 L508.5 317 L513.5 320 Z" clip-path="url(#clipPath2)" stroke="none"/>
    </g>
  </g>
</svg>
