<?xml version="1.0" encoding="UTF-8"?><svg xmlns="http://www.w3.org/2000/svg" xmlns:xlink="http://www.w3.org/1999/xlink" fill-opacity="1" color-rendering="auto" color-interpolation="auto" text-rendering="auto" stroke="black" stroke-linecap="square" width="442" stroke-miterlimit="10" shape-rendering="auto" stroke-opacity="1" fill="black" stroke-dasharray="none" font-weight="normal" stroke-width="1" height="503" font-family="'Dialog'" font-style="normal" stroke-linejoin="miter" font-size="12px" stroke-dashoffset="0" image-rendering="auto">
  <!--Generated by ySVG 2.5-->
  <defs id="genericDefs"/>
  <g>
    <defs id="defs1">
      <clipPath clipPathUnits="userSpaceOnUse" id="clipPath1">
        <path d="M0 0 L442 0 L442 503 L0 503 L0 0 Z"/>
      </clipPath>
      <clipPath clipPathUnits="userSpaceOnUse" id="clipPath2">
        <path d="M361 133 L803 133 L803 636 L361 636 L361 133 Z"/>
      </clipPath>
    </defs>
    <g fill="white" text-rendering="geometricPrecision" shape-rendering="geometricPrecision" transform="translate(-361,-133)" stroke="white">
      <rect x="361" width="442" height="503" y="133" clip-path="url(#clipPath2)" stroke="none"/>
    </g>
    <g text-rendering="geometricPrecision" stroke-miterlimit="1.45" stroke-width="2" shape-rendering="geometricPrecision" transform="matrix(1,0,0,1,-361,-133)" stroke-linecap="butt">
      <ellipse rx="60.5" fill="none" ry="46" clip-path="url(#clipPath2)" cx="461.5" cy="194"/>
      <text x="409.3589" font-size="14px" y="199.4995" clip-path="url(#clipPath2)" font-family="sans-serif" stroke="none" stroke-width="1" xml:space="preserve">PANAS negative</text>
      <ellipse rx="60.5" fill="none" ry="46" clip-path="url(#clipPath2)" cx="461.5" cy="332"/>
      <text x="412.0898" font-size="14px" y="337.4995" clip-path="url(#clipPath2)" font-family="sans-serif" stroke="none" stroke-width="1" xml:space="preserve">PANAS positive</text>
      <ellipse rx="60.5" fill="none" ry="46" clip-path="url(#clipPath2)" cx="461.5" cy="470"/>
      <text x="412.4829" font-size="14px" y="466.9238" clip-path="url(#clipPath2)" font-family="sans-serif" stroke="none" stroke-width="1" xml:space="preserve">TAM perceived </text>
      <text x="428.0347" font-size="14px" y="484.0752" clip-path="url(#clipPath2)" font-family="sans-serif" stroke="none" stroke-width="1" xml:space="preserve">usefulness</text>
      <rect fill="none" x="420" width="102" height="59" y="562" clip-path="url(#clipPath2)"/>
      <text x="425.3057" y="588.8633" clip-path="url(#clipPath2)" font-family="sans-serif" stroke="none" stroke-width="1" xml:space="preserve">mean valence of </text>
      <text x="439.6582" y="603.5645" clip-path="url(#clipPath2)" font-family="sans-serif" stroke="none" stroke-width="1" xml:space="preserve">drawn CAM</text>
      <ellipse rx="60.5" fill="none" ry="46" clip-path="url(#clipPath2)" cx="727.5" cy="388"/>
      <text x="674.5864" font-size="14px" y="384.9238" clip-path="url(#clipPath2)" font-family="sans-serif" stroke="none" stroke-width="1" xml:space="preserve">TAM intention to </text>
      <text x="716.2139" font-size="14px" y="402.0752" clip-path="url(#clipPath2)" font-family="sans-serif" stroke="none" stroke-width="1" xml:space="preserve">use</text>
      <path fill="none" d="M404.2509 302.4212 L404.1647 302.3706 L397.375 297.5 L388.0234 288.875 L381.3438 280.25 L377.3359 271.625 L376 263 L377.3359 254.375 L381.3438 245.75 L388.0234 237.125 L397.375 228.5 L404.1647 223.6294 L404.2509 223.5788" stroke-width="1" clip-path="url(#clipPath2)"/>
      <path d="M410.8294 306.9735 L403.8069 296.0335 L403.4286 301.8522 L398.1165 304.2566 Z" stroke-width="1" clip-path="url(#clipPath2)" stroke="none"/>
      <path d="M410.8294 219.0265 L398.1165 221.7434 L403.4286 224.1478 L403.8069 229.9665 Z" stroke-width="1" clip-path="url(#clipPath2)" stroke="none"/>
      <path fill="none" d="M404.8067 439.8456 L404.7209 439.794 L398.875 435.5 L389.7422 426.875 L383.2188 418.25 L379.3047 409.625 L378 401 L379.3047 392.375 L383.2188 383.75 L389.7422 375.125 L398.875 366.5 L404.7209 362.206 L404.8067 362.1544" stroke-width="1" clip-path="url(#clipPath2)"/>
      <path d="M411.2865 444.5372 L404.499 433.4498 L403.9967 439.2591 L398.6345 441.5497 Z" stroke-width="1" clip-path="url(#clipPath2)" stroke="none"/>
      <path d="M411.2865 357.4628 L398.6345 360.4503 L403.9967 362.7409 L404.499 368.5502 Z" stroke-width="1" clip-path="url(#clipPath2)" stroke="none"/>
      <path fill="none" d="M505.161 225.843 L677.3754 351.443" stroke-width="1" clip-path="url(#clipPath2)"/>
      <path d="M683.839 356.157 L677.0898 345.0462 L676.5674 350.8537 L671.1973 353.1257 Z" stroke-width="1" clip-path="url(#clipPath2)" stroke="none"/>
      <text x="577.1272" y="263.6661" clip-path="url(#clipPath2)" font-family="sans-serif" stroke="none" stroke-width="1" xml:space="preserve">-.22 (.05)</text>
      <path fill="none" d="M519.8062 344.275 L661.3654 374.0769" stroke-width="1" clip-path="url(#clipPath2)"/>
      <path d="M669.1938 375.725 L658.4813 368.3601 L660.3868 373.8709 L656.4211 378.1456 Z" stroke-width="1" clip-path="url(#clipPath2)" stroke="none"/>
      <text x="552.1553" y="329.8457" clip-path="url(#clipPath2)" font-family="sans-serif" stroke="none" stroke-width="1" xml:space="preserve">.54 (.06)</text>
      <path fill="none" d="M517.567 452.7162 L663.788 407.6405" stroke-width="1" clip-path="url(#clipPath2)"/>
      <path d="M671.433 405.2838 L658.4926 404.0408 L662.8324 407.9351 L661.4385 413.597 Z" stroke-width="1" clip-path="url(#clipPath2)" stroke="none"/>
      <text x="559.4551" y="406.2358" clip-path="url(#clipPath2)" font-family="sans-serif" stroke="none" stroke-width="1" xml:space="preserve">.22 (.06)</text>
      <path fill="none" d="M508.183 562 L679.3721 426.1833" stroke-width="1" clip-path="url(#clipPath2)"/>
      <path d="M685.6393 421.2111 L673.1309 424.7524 L678.5887 426.8048 L679.3462 432.5864 Z" stroke-width="1" clip-path="url(#clipPath2)" stroke="none"/>
      <text x="558.0067" y="471.1626" clip-path="url(#clipPath2)" font-family="sans-serif" stroke="none" stroke-width="1" xml:space="preserve">.46 (.08)</text>
    </g>
  </g>
</svg>
